<?xml version="1.0" standalone="no"?>
<!DOCTYPE svg PUBLIC "-//W3C//DTD SVG 20010904//EN"
 "http://www.w3.org/TR/2001/REC-SVG-20010904/DTD/svg10.dtd">
<svg version="1.0" xmlns="http://www.w3.org/2000/svg"
 width="124.000000pt" height="124.000000pt" viewBox="0 0 124.000000 124.000000"
 preserveAspectRatio="xMidYMid meet">

<g transform="translate(0.000000,124.000000) scale(0.100000,-0.100000)"
fill="#000000" stroke="none">
<path d="M477 1214 c-218 -53 -394 -229 -452 -454 -25 -97 -17 -251 18 -350
26 -74 94 -184 143 -234 50 -49 160 -117 234 -143 98 -34 244 -42 344 -19 279
66 475 312 476 598 0 107 -15 168 -66 275 -78 162 -232 287 -405 328 -79 18
-215 18 -292 -1z m-48 -273 c65 -109 86 -151 76 -155 -9 -3 -51 43 -120 131
l-106 137 23 18 c13 10 26 18 30 18 4 0 47 -67 97 -149z m-33 -105 l72 -81
-18 -26 c-11 -14 -24 -46 -31 -72 -9 -36 -16 -47 -31 -47 -26 0 -321 50 -326
55 -3 2 -1 29 2 59 9 72 62 179 122 245 l48 54 46 -54 c25 -29 77 -89 116
-133z m326 -65 c142 -90 103 -303 -63 -340 -164 -37 -289 147 -196 289 56 83
172 106 259 51z m331 -177 l127 -7 0 -29 c0 -76 -80 -249 -142 -306 l-25 -23
-112 125 -111 124 22 67 22 67 45 -5 c25 -4 103 -9 174 -13z m-187 -261 c53
-70 98 -132 100 -138 3 -6 -7 -22 -21 -35 -30 -28 -20 -40 -129 140 -71 119
-86 160 -57 160 6 0 53 -57 107 -127z"/>
<path d="M564 740 c-31 -12 -72 -66 -80 -105 -9 -49 4 -91 37 -125 83 -82 226
-29 236 87 9 107 -94 183 -193 143z m78 -92 c38 -31 25 -88 -20 -88 -15 0 -33
5 -40 12 -19 19 -14 55 10 72 27 19 30 19 50 4z"/>
</g>
</svg>
