<?xml version="1.0" standalone="no"?>
<!DOCTYPE svg PUBLIC "-//W3C//DTD SVG 20010904//EN"
 "http://www.w3.org/TR/2001/REC-SVG-20010904/DTD/svg10.dtd">
<svg version="1.0" xmlns="http://www.w3.org/2000/svg"
 width="124.000000pt" height="124.000000pt" viewBox="0 0 124.000000 124.000000"
 preserveAspectRatio="xMidYMid meet">

<g transform="translate(0.000000,124.000000) scale(0.100000,-0.100000)"
fill="#000000" stroke="none">
<path d="M777 1208 c-27 -21 -37 -65 -37 -167 l0 -98 -97 0 c-87 1 -104 -2
-155 -27 -67 -33 -128 -95 -160 -163 -19 -39 -23 -65 -23 -135 l0 -88 -128 0
-127 0 -20 -32 c-11 -18 -20 -44 -20 -59 0 -35 49 -109 93 -139 25 -17 41 -37
47 -61 15 -56 44 -85 95 -98 26 -6 55 -22 66 -34 67 -78 78 -87 106 -87 18 0
38 9 52 24 20 21 25 41 32 133 4 59 8 113 8 119 1 8 13 9 44 2 144 -34 288 32
367 167 20 34 24 57 28 148 l4 107 117 0 c110 0 119 2 139 23 53 56 29 139
-58 204 -31 23 -54 49 -60 69 -19 58 -46 82 -105 94 -45 9 -58 17 -75 46 -38
60 -93 82 -133 52z m-152 -403 c-17 -9 -64 -40 -104 -71 -74 -55 -91 -62 -73
-27 31 56 121 112 182 112 24 1 24 0 -5 -14z"/>
</g>
</svg>
