<?xml version="1.0" standalone="no"?>
<!DOCTYPE svg PUBLIC "-//W3C//DTD SVG 20010904//EN"
 "http://www.w3.org/TR/2001/REC-SVG-20010904/DTD/svg10.dtd">
<svg version="1.0" xmlns="http://www.w3.org/2000/svg"
 width="124.000000pt" height="124.000000pt" viewBox="0 0 124.000000 124.000000"
 preserveAspectRatio="xMidYMid meet">

<g transform="translate(0.000000,124.000000) scale(0.100000,-0.100000)"
fill="#000000" stroke="none">
<path d="M233 1178 c-39 -65 -63 -156 -63 -236 0 -38 -7 -78 -20 -107 -11 -26
-20 -55 -20 -65 0 -10 -7 -31 -15 -46 -20 -39 -19 -45 16 -93 17 -24 29 -44
27 -45 -2 -2 -34 -17 -71 -35 -37 -18 -70 -38 -73 -46 -3 -8 1 -27 9 -42 9
-15 18 -35 20 -44 4 -13 23 -17 89 -21 64 -3 93 -10 126 -28 l42 -24 -2 -76
c-3 -70 -1 -80 24 -112 15 -19 41 -41 58 -48 17 -7 33 -22 36 -36 3 -12 14
-30 25 -40 18 -16 19 -15 39 32 12 27 28 55 37 61 24 18 134 17 160 -2 12 -8
38 -18 59 -23 20 -4 40 -14 44 -22 30 -65 38 -75 59 -78 23 -4 24 -3 17 53 -6
52 -4 63 24 111 34 60 37 82 15 124 l-15 28 50 12 c71 17 71 20 16 96 -7 9 1
25 27 53 42 47 42 46 22 121 -8 30 -11 57 -7 61 22 20 153 109 189 129 23 12
44 31 46 41 9 34 -28 279 -42 279 -9 0 -171 -149 -273 -251 -84 -84 -89 -97
-59 -157 10 -20 25 -56 32 -80 12 -42 12 -43 -24 -80 -20 -21 -37 -45 -37 -53
0 -8 16 -30 35 -49 30 -29 33 -35 19 -43 -22 -12 -36 3 -75 83 -17 36 -59 96
-92 134 -57 64 -62 74 -68 130 -4 34 -11 71 -15 84 -5 18 -3 22 17 22 55 1
299 153 299 187 0 13 -15 15 -112 11 -122 -6 -151 -15 -243 -73 -61 -39 -72
-41 -134 -19 -42 14 -69 14 -155 -3 -27 -5 -28 -4 -23 23 3 16 13 54 21 84 21
70 13 170 -13 170 -10 0 -30 -23 -48 -52z"/>
</g>
</svg>
