<?xml version="1.0" standalone="no"?>
<!DOCTYPE svg PUBLIC "-//W3C//DTD SVG 20010904//EN"
 "http://www.w3.org/TR/2001/REC-SVG-20010904/DTD/svg10.dtd">
<svg version="1.0" xmlns="http://www.w3.org/2000/svg"
 width="124.000000pt" height="124.000000pt" viewBox="0 0 124.000000 124.000000"
 preserveAspectRatio="xMidYMid meet">

<g transform="translate(0.000000,124.000000) scale(0.100000,-0.100000)"
fill="#000000" stroke="none">
<path d="M838 1193 c-20 -21 -45 -54 -57 -73 l-21 -35 0 32 c0 17 -5 44 -10
58 -9 23 -13 25 -26 14 -26 -21 -62 -92 -69 -134 -11 -67 -9 -65 -67 -48 -29
9 -76 26 -103 39 -115 55 -229 9 -269 -109 -17 -51 -17 -54 3 -107 20 -51 20
-55 3 -64 -67 -37 -109 -123 -98 -202 5 -37 2 -44 -30 -75 -62 -60 -69 -147
-18 -208 24 -29 24 -31 8 -56 -23 -36 -22 -120 3 -153 63 -84 172 -95 236 -24
15 17 24 19 52 11 61 -17 155 41 155 95 0 20 9 20 34 1 12 -9 42 -15 71 -15
42 0 60 6 92 29 54 39 72 66 79 122 l6 47 52 4 c97 8 176 88 184 185 2 28 0
65 -6 82 -9 26 -8 31 8 36 21 7 150 140 150 155 0 6 -15 4 -35 -5 -81 -35
-102 -43 -130 -49 l-30 -7 41 43 c23 24 47 53 53 66 16 30 6 45 -19 30 -37
-23 -30 0 18 64 49 66 98 155 89 164 -2 3 -34 -28 -71 -68 -36 -40 -66 -69
-66 -64 0 5 29 53 66 108 36 55 63 102 61 105 -11 11 -233 -143 -310 -215
l-28 -26 14 39 c8 22 20 74 26 115 7 41 14 87 17 103 8 39 -14 35 -58 -10z"/>
</g>
</svg>
