<?xml version="1.0" standalone="no"?>
<!DOCTYPE svg PUBLIC "-//W3C//DTD SVG 20010904//EN"
 "http://www.w3.org/TR/2001/REC-SVG-20010904/DTD/svg10.dtd">
<svg version="1.0" xmlns="http://www.w3.org/2000/svg"
 width="124.000000pt" height="124.000000pt" viewBox="0 0 124.000000 124.000000"
 preserveAspectRatio="xMidYMid meet">

<g transform="translate(0.000000,124.000000) scale(0.100000,-0.100000)"
fill="#000000" stroke="none">
<path d="M529 1213 c-10 -2 -20 -19 -23 -39 -14 -72 -100 -133 -165 -117 -14
3 -38 17 -53 30 -34 33 -53 26 -117 -42 l-51 -53 20 -44 c11 -24 20 -58 20
-76 0 -68 -59 -146 -121 -159 -33 -6 -32 -3 -30 -98 2 -57 6 -73 22 -85 96
-71 119 -105 119 -174 0 -37 -6 -52 -32 -82 l-33 -37 25 -16 c14 -9 44 -33 66
-53 47 -44 64 -46 106 -17 16 12 50 24 74 27 84 9 144 -38 144 -113 0 -52 8
-56 107 -61 79 -3 86 1 97 54 19 101 126 150 221 102 22 -11 48 -20 60 -20 11
1 44 24 74 51 46 43 53 54 43 68 -58 80 -65 114 -32 168 21 35 45 51 104 68
l39 12 0 114 1 114 -40 5 c-115 16 -159 109 -94 199 36 49 34 61 -19 118 -52
55 -84 64 -119 30 -52 -48 -110 -61 -162 -34 -32 16 -70 73 -70 106 0 46 -12
53 -91 56 -41 2 -81 1 -90 -2z m188 -313 c60 -26 127 -92 154 -153 34 -76 33
-183 -3 -252 -74 -141 -232 -208 -369 -156 -151 57 -238 218 -195 362 51 175
248 270 413 199z"/>
</g>
</svg>
