<?xml version="1.0" encoding="UTF-8"?>
<svg width="270px" height="99px" viewBox="0 0 270 99" version="1.1" xmlns="http://www.w3.org/2000/svg" xmlns:xlink="http://www.w3.org/1999/xlink">
    <!-- Generator: Sketch 64 (93537) - https://sketch.com -->
    <title>pokemon-color-logo</title>
    <desc>Created with Sketch.</desc>
    <defs>
        <linearGradient x1="64.1593555%" y1="86.16491%" x2="35.1327796%" y2="8.69499544%" id="linearGradient-1">
            <stop stop-color="#0070B6" offset="0%"></stop>
            <stop stop-color="#1D2C5E" offset="100%"></stop>
        </linearGradient>
        <linearGradient x1="39.36489%" y1="65.3383439%" x2="92.1123689%" y2="7.48713376%" id="linearGradient-2">
            <stop stop-color="#0070B6" offset="0%"></stop>
            <stop stop-color="#1D2C5E" offset="100%"></stop>
        </linearGradient>
        <linearGradient x1="50.6749702%" y1="89.4943124%" x2="46.7848544%" y2="8.08876534%" id="linearGradient-3">
            <stop stop-color="#0070B6" offset="0%"></stop>
            <stop stop-color="#1D2C5E" offset="100%"></stop>
        </linearGradient>
        <linearGradient x1="50.3852161%" y1="81.3150565%" x2="48.9293436%" y2="9.51102229%" id="linearGradient-4">
            <stop stop-color="#125D9E" offset="0%"></stop>
            <stop stop-color="#1D2C5E" offset="100%"></stop>
        </linearGradient>
        <linearGradient x1="58.1973843%" y1="-3.40768095%" x2="51.8868285%" y2="37.8502488%" id="linearGradient-5">
            <stop stop-color="#125D9E" offset="0%"></stop>
            <stop stop-color="#1D2C5E" offset="100%"></stop>
        </linearGradient>
        <linearGradient x1="18.9578272%" y1="9.11183062%" x2="45.9781711%" y2="45.826334%" id="linearGradient-6">
            <stop stop-color="#105FA1" offset="0%"></stop>
            <stop stop-color="#1D2C5E" offset="100%"></stop>
        </linearGradient>
        <linearGradient x1="27.7639804%" y1="-5.95869899%" x2="48.3665855%" y2="43.973632%" id="linearGradient-7">
            <stop stop-color="#105FA1" offset="0%"></stop>
            <stop stop-color="#1D2C5E" offset="100%"></stop>
        </linearGradient>
        <linearGradient x1="0.00075334296%" y1="49.996416%" x2="99.9989328%" y2="49.996416%" id="linearGradient-8">
            <stop stop-color="#3C5AA6" offset="0%"></stop>
            <stop stop-color="#2B73B9" offset="93.31%"></stop>
            <stop stop-color="#2A75BB" offset="100%"></stop>
        </linearGradient>
        <linearGradient x1="0.000252123292%" y1="49.9998016%" x2="100.000339%" y2="49.9998016%" id="linearGradient-9">
            <stop stop-color="#3C5AA6" offset="0%"></stop>
            <stop stop-color="#2B73B9" offset="93.31%"></stop>
            <stop stop-color="#2A75BB" offset="100%"></stop>
        </linearGradient>
    </defs>
    <g id="Pokémon-Logo" stroke="none" stroke-width="1" fill="none" fill-rule="evenodd">
        <g id="Pokemon.com" transform="translate(-65.000000, -51.000000)">
            <g id="pokemon-color-logo" transform="translate(65.000000, 50.000000)">
                <g id="3d-depth-highlight" transform="translate(0.000000, 1.000000)">
                    <polygon id="polygon16" fill="url(#linearGradient-1)" points="8.8817842e-16 36.557 12.026 56.858 16.827 52.279 3.738 32.76"></polygon>
                    <polygon id="polygon18" fill="#0071B9" points="178.558 20.602 178.093 23.278 183.845 21.422 183.128 18.144"></polygon>
                    <polygon id="polygon25" fill="url(#linearGradient-2)" points="145.044 2.326 126.536 23.55 131.922 22.001 149.543 0"></polygon>
                    <polygon id="polygon27" fill="#1D2C5E" points="244.056 31.345 248.599 28.924 247.301 40.3"></polygon>
                    <polygon id="polygon29" fill="#1D2C5E" points="215.82 38.64 219.858 39.467 225.012 36.965 220.539 35.296"></polygon>
                    <polygon id="polygon36" fill="url(#linearGradient-3)" points="76.598 26.561 77.244 39.744 82.88 37.467 81.193 24.096"></polygon>
                    <polygon id="polygon43" fill="url(#linearGradient-4)" points="220.19 22.627 215.654 25.075 215.82 38.64 220.386 36.3 221.819 29.734"></polygon>
                    <polygon id="polygon45" fill="#312370" points="219.567 39.505 214.572 83.875 222.557 82.3 224.121 37.112"></polygon>
                    <polygon id="polygon47" fill="#21386E" points="229.345 86.002 229.487 92.019 244.815 96.904 249.377 94.486 234.337 82.834 219.102 81.496 214.572 83.875"></polygon>
                    <polygon id="polygon49" fill="#21386E" points="172.483 75.419 176.25 73.39 178.651 77.826 182.201 75.875 182.908 81.723 205.192 85.675 209.645 83.226 178.917 64.503 157.119 68.239 152.867 72.28"></polygon>
                    <polygon id="polygon56" fill="url(#linearGradient-5)" points="165.387 20.828 160.926 23.283 152.867 72.28 157.381 69.935 165.117 42.424"></polygon>
                    <polygon id="polygon58" fill="#1D2C5E" points="129.789 27.395 126.235 29.288 126.534 30.473 134.992 25.1 131.296 21.134 126.536 23.55"></polygon>
                    <polygon id="polygon60" fill="#21386E" points="139.506 85.272 103.166 67.271 107.728 63.822 144.028 82.83"></polygon>
                    <polygon id="polygon62" fill="#1D2C5E" points="106.581 18.277 101.074 28.72 106.893 26.958 111.092 15.83"></polygon>
                    <path d="M56.633,61.419 L51.987,64.608 C51.987,64.608 52.973,69.792 54.244,73.398 C55.522,77.017 58.564,79.924 58.564,79.924 C60.518,81.834 62.913,83.224 65.585,84.004 C70.724,85.483 76.524,84.519 81.503,81.344 C82.805,80.52 84.572,79.201 85.658,78.16 C80.764,81.13 56.633,61.419 56.633,61.419 L56.633,61.419 Z" id="path69" fill="url(#linearGradient-6)"></path>
                    <polygon id="polygon71" fill="#1D2C5E" points="81.496 38.669 85.736 85.445 103.06 82.882 107.695 80.453 86.196 35.865 81.773 37.355 77.244 39.744"></polygon>
                    <polygon id="polygon78" fill="url(#linearGradient-7)" points="16.55 54.916 35.906 98.814 54.295 92.882 58.785 89.864 20.617 49.929 15.841 52.791 12.026 56.858"></polygon>
                    <path d="M208.381,75.627 L208.641,77.782 C210.225,77.604 211.889,77.399 213.313,76.892 C214.973,76.324 218.579,74.718 219.95,73.535 C219.436,73.722 210.987,75.912 208.381,75.627" id="path80" fill="#1D2C5E"></path>
                    <path d="M143.322,64.418 L144.012,67.888 C147.734,67.334 150.929,65.957 154.07,64.069 C156.041,62.895 158.205,61.124 158.888,60.652 C158.406,60.96 143.322,64.418 143.322,64.418 L143.322,64.418 Z" id="path82" fill="#1D2C5E"></path>
                </g>
                <g id="fills" transform="translate(4.549000, 2.314000)" fill="#FFCB05">
                    <path d="M36.389,93.338 L34.952,90.145 L16.6,49.186 L16.223,48.346 L15.389,48.731 L14.832,48.987 L11.565,50.591 C11.083,49.783 10.283,48.429 9.727,47.49 L2.34,35.006 L0.408,31.747 L3.604,29.722 C6.627,27.794 10.041,26.013 13.755,24.427 C21.15,21.277 28.698,19.611 35.581,19.611 C37.845,19.611 40.036,19.794 42.094,20.152 C45.525,20.543 48.698,21.669 51.319,23.415 C55.225,25.599 58.3,28.987 60.037,32.995 C61.463,36.289 61.741,40.147 60.835,44.149 L60.303,46.5 L62.256,45.084 C63.572,44.129 65.002,43.313 66.506,42.658 C69.106,41.559 71.796,40.998 74.491,40.998 C77.042,40.998 79.454,41.503 81.661,42.496 L83.084,43.134 L82.941,41.581 L82.322,34.87 L82.222,33.806 L81.186,34.075 L78.077,34.881 L77.532,23.454 L100.306,16.178 L100.122,25.059 L101.837,25.499 L106.811,15.967 L121.708,29.179 L122.329,29.732 L122.935,29.162 C124.976,27.244 127.395,25.705 130.124,24.588 L131.264,24.122 L130.483,23.169 L127.797,19.895 L144.9,0.181 L153.857,13.546 L140.146,20.916 L137.101,22.554 L140.558,22.627 C147.058,22.764 152.814,25.514 156.763,30.369 L158.191,32.13 L159.111,33.261 L157.583,34.883 L156.564,35.965 L153.138,39.619 L152.501,40.298 L153.19,40.92 L156.401,43.811 L157.643,44.928 L157.909,43.28 L159.141,35.653 L159.456,33.695 L159.466,33.706 L159.79,31.706 L161.629,20.446 L178.047,20.446 L178.817,20.446 L178.947,19.687 L179.268,17.759 L194.053,17.759 L197.635,40.38 L197.868,41.845 L199.068,40.974 C200.519,39.92 202.122,39.053 203.834,38.398 C206.113,37.538 208.459,37.099 210.801,37.099 C213.589,37.099 216.296,37.743 218.637,38.96 C218.699,39.005 218.787,39.063 218.907,39.111 L220.018,39.557 L220.149,38.365 L220.417,35.9 L220.505,35.092 L219.71,34.915 L216.712,34.245 L216.566,22.453 L239.423,27.484 L241.14,35.969 L242.915,36.004 L244.686,28.702 L263.746,33.337 L244.268,92.04 L230.33,87.663 L230.231,82.256 L230.217,81.481 L229.448,81.373 L215.54,79.41 L216.327,72.341 L216.514,70.659 L215.009,71.43 C214.296,71.793 213.606,72.098 212.954,72.338 C210.68,73.198 208.351,73.633 206.032,73.633 C205.361,73.633 204.687,73.596 204.031,73.522 L202.843,73.389 L203.029,74.569 L204.008,80.786 L183.717,77.207 L182.654,67.981 L182.312,65.024 L180.945,67.667 L178.609,72.172 L174.308,64.232 L173.015,61.847 L172.607,64.527 L171.67,70.673 L153.886,67.874 L155.265,59.439 L155.58,57.505 L153.899,58.51 C150.988,60.255 147.645,61.568 143.682,62.525 C142.297,62.863 140.85,63.097 139.377,63.219 L138.543,63.289 L138.543,64.126 L138.543,80.044 L103.52,62.735 L102.204,62.086 L102.205,63.553 L102.229,78.357 L86.57,80.664 L85.912,73.555 L85.734,71.653 L84.369,72.991 C82.3,75.016 79.969,76.586 77.442,77.658 C74.857,78.757 72.19,79.313 69.517,79.313 C66.848,79.313 64.34,78.755 62.062,77.664 C57.842,75.634 54.798,71.951 53.492,67.304 C52.87,65.121 52.701,62.816 52.99,60.45 L53.299,57.93 L51.461,59.68 C50.165,60.91 48.769,62.085 47.309,63.164 L46.814,63.529 L46.97,64.124 L52.245,84.372 L53.177,87.965 L49.645,89.088 L39.713,92.268 L36.389,93.338 L36.389,93.338 L36.389,93.338 Z M40.847,38.982 C40.335,38.982 39.806,39.029 39.273,39.125 L38.597,39.255 L37.599,39.447 L37.9,40.419 L38.096,41.051 L40.936,50.344 L41.22,51.237 L41.642,52.577 L42.692,51.643 L43.389,51.022 C46.142,48.548 47.107,46.036 46.526,42.868 C46.16,40.967 44.688,40.02 43.842,39.624 C42.958,39.198 41.946,38.982 40.847,38.982 L40.847,38.982 L40.847,38.982 Z M116.982,39.287 L115.207,41.015 L110.532,45.558 L109.514,46.547 L110.839,47.059 L115.853,48.994 L117.393,49.587 L117.075,47.969 C116.661,45.879 116.553,43.787 116.747,41.752 L116.982,39.287 L116.982,39.287 L116.982,39.287 Z M137.398,34.12 C135.459,34.12 133.583,34.954 132.25,36.406 C130.228,38.614 129.835,41.871 131.273,44.509 L131.654,45.224 L132.267,46.367 L133.13,45.401 L133.685,44.786 L140.543,36.956 L141.082,36.336 L141.947,35.342 L140.713,34.885 L139.944,34.601 C139.137,34.285 138.273,34.12 137.398,34.12 L137.398,34.12 L137.398,34.12 Z" id="path86"></path>
                </g>
                <g id="shadows" transform="translate(10.000000, 7.000000)">
                    <polygon id="polygon90" fill="#7D7F68" points="148.351 35.555 151.776 31.901 150.604 33.145 150.638 32.988 149.602 34.081 146.18 37.724 149.386 40.608 149.967 37.016 151.563 38.445"></polygon>
                    <polygon id="polygon92" fill="#7D7F68" points="148.351 35.555 151.563 38.445 152.793 30.819 151.776 31.901"></polygon>
                    <polygon id="path94" fill="#7D7F68" points="105.715 41.522 105.767 41.544"></polygon>
                    <path d="M124.677,44.694 C124.951,44.971 124.698,44.772 125.005,44.982 L127.1,43.505 C126.789,43.285 126.481,43.049 126.198,42.785 C123.158,40.015 123.948,33.785 125.92,30.375 C120.729,34.563 120.999,41.01 124.677,44.694" id="path96" fill="#C7A008"></path>
                    <path d="M149.967,48.182 C146.507,51.044 142.563,52.91 137.352,54.169 C136.213,54.43 135.097,54.62 134.005,54.716 C125.734,55.529 118.795,51.731 116.162,45.571 C115.834,44.825 115.581,44.07 115.39,43.264 C114.172,38.076 115.212,33.44 117.775,29.806 C118.029,29.454 118.296,29.117 118.576,28.774 C118.445,28.886 118.311,28.982 118.202,29.087 C117.217,29.964 116.345,30.925 115.604,31.975 C113.038,35.609 111.998,40.248 113.227,45.428 C113.415,46.234 113.664,47 113.985,47.729 C116.619,53.903 123.56,57.699 131.824,56.892 C132.925,56.786 134.037,56.604 135.177,56.329 C140.394,55.07 144.335,53.212 147.795,50.35 C148.64,49.655 149.455,48.897 150.246,48.068 L150.173,47.998 C150.094,48.066 150.035,48.125 149.967,48.182" id="path98" fill="#C7A008"></path>
                    <polygon id="polygon100" fill="#C7A008" points="91.678 32.499 100.919 19.513 100.544 19.167 91.628 31.691"></polygon>
                    <polygon id="polygon102" fill="#C7A008" points="152.793 30.819 151.563 38.445 149.967 37.016 149.386 40.608 146.18 37.724 149.602 34.081 150.638 32.988 150.604 33.145 151.776 31.901"></polygon>
                    <polygon id="polygon104" fill="#C7A008" points="141.374 9.429 144.61 8.041 138.695 0.45 136.757 3.157"></polygon>
                    <path d="M51.785,28.235 C36.849,10.04 9.936,19.82 0.263,28.331 L0.641,28.984 C2.865,27.708 5.21,26.554 7.677,25.519 C17.285,21.415 26.445,20.212 33.789,21.497 C36.385,21.795 39.135,22.565 41.528,24.167 C44.841,26.022 47.352,28.661 48.82,32.043 C51.425,38.033 49.13,45.998 42.995,52.666 C50.69,45.605 55.955,38.849 51.785,28.235 L51.785,28.235 Z" id="path106" fill="#C7A008"></path>
                    <path d="M82.257,49.433 C82.187,49.103 82.117,48.768 82.01,48.445 C81.169,45.42 79.362,43.005 76.993,41.398 C73.159,38.794 67.807,38.259 62.473,40.511 C59.667,41.724 57.227,43.591 55.298,45.821 C56.781,44.545 58.476,43.482 60.307,42.69 C65.629,40.431 70.981,40.965 74.828,43.566 C77.197,45.175 78.989,47.589 79.848,50.61 C79.943,50.934 80.017,51.274 80.091,51.615 C80.319,52.765 80.425,53.928 80.381,55.119 C80.27,58.601 78.979,62.107 76.832,65.101 C76.486,65.575 76.122,66.017 75.745,66.455 C76.967,65.4 78.058,64.233 78.99,62.926 C81.146,59.951 82.434,56.438 82.548,52.935 C82.596,51.766 82.499,50.584 82.257,49.433" id="path108" fill="#C7A008"></path>
                    <path d="M67.55,44.992 C67.529,45.025 69.717,42.824 69.692,42.824 C66.955,42.72 65.798,45.301 65.703,45.504 C66.265,45.232 66.885,45.055 67.55,44.992" id="path110" fill="#C7A008"></path>
                    <path d="M72.705,48.147 C72.816,48.518 72.874,48.887 72.874,49.291 C72.874,49.861 72.747,50.408 72.516,50.912 C72.954,50.683 76.119,49.148 74.892,45.896 C74.958,45.996 72.626,48.137 72.705,48.147" id="path112" fill="#C7A008"></path>
                    <path d="M60.255,49.957 C60.255,48.619 62.546,45.373 63.26,44.29 C59.642,46.59 58.084,49.694 58.084,52.139 C58.084,56.328 61.765,59.697 66.166,59.697 C68.248,59.697 72.061,58.596 74.555,54.56 C73.248,55.42 69.926,57.478 68.183,57.478 C63.783,57.477 60.255,54.169 60.255,49.957" id="path114" fill="#C7A008"></path>
                    <polygon id="polygon116" fill="#C7A008" points="91.227 53.791 91.284 70.746 93.975 70.9 93.443 51.572"></polygon>
                    <polygon id="polygon118" fill="#C7A008" points="75.781 21.511 75.836 23.017 88.589 19.22 89.534 35.46 91.662 32.478 91.208 16.181"></polygon>
                    <polygon id="polygon120" fill="#C7A008" points="114.332 27.326 102.353 16.332 100.919 19.513 111.462 29.418"></polygon>
                    <path d="M112.511,47.814 L98.447,43.164 L96.398,45.328 L110.409,50.935 C111.998,53.929 114.406,56.494 117.438,58.369 C120.373,60.164 123.727,61.239 127.279,61.58 L127.279,68.5 L129.451,69.584 L130.138,59.188 L112.511,47.814 L112.511,47.814 Z" id="path122" fill="#C7A008"></path>
                    <path d="M135.095,45.858 C138.549,45.025 140.541,43.223 142.256,41.24 C140.969,42.296 134.517,43.702 133.433,44.069 L131.308,46.332 C132.279,46.418 133.903,46.156 135.095,45.858" id="path124" fill="#C7A008"></path>
                    <path d="M128.813,21.943 C122.444,22.777 119.125,28.124 118.576,28.775 C120.928,26.788 123.876,25.313 127.196,24.527 C135.077,22.621 142.026,25.024 146.321,30.334 L148.979,28.084 C144.725,22.866 136.692,20.043 128.813,21.943" id="path126" fill="#C7A008"></path>
                    <path d="M150.174,47.998 C150.942,47.352 152.307,46.699 153.033,45.938 L144.505,38.318 C143.852,39.099 143.26,40.386 142.463,41.063 L150.174,47.998 L150.174,47.998 Z" id="path128" fill="#C7A008"></path>
                    <path d="M193.938,68.418 C184.991,61.064 185.526,45.295 189.918,40.292 L185.976,15.577 L177.354,16.69 L176.97,18.867 L183.494,18.867 L186.949,41.291 C182.553,46.31 180.429,53.034 181.898,59.19 C183.035,63.947 185.957,67.797 190.163,70.024 C190.586,70.256 191.023,70.458 191.47,70.649 L191.526,70.978 L194.091,71.383 C194.091,71.382 194.358,68.632 193.938,68.418 L193.938,68.418 Z" id="path130" fill="#C7A008"></path>
                    <polygon id="polygon132" fill="#C7A008" points="159.55 19.214 159.179 21.392 169.013 21.392 171.91 37.273 174.092 35.069 171.798 18.304"></polygon>
                    <polygon id="polygon134" fill="#C7A008" points="176.385 50.044 173.21 58.246 173.996 60.38 178.537 47.889"></polygon>
                    <polygon id="polygon136" fill="#C7A008" points="166.956 44.878 164.77 47.061 162.427 61.875 164.671 62.732"></polygon>
                    <path d="M211.123,40.146 C212.41,41.065 213.508,42.228 214.334,43.611 C214.986,44.672 215.479,45.86 215.794,47.164 C216.865,51.617 215.584,56.433 212.753,60.297 C212.468,60.689 212.154,61.068 211.854,61.44 C213.004,60.451 226.972,50.148 213.325,36.616 C198.315,31.668 192.633,41.461 192.102,42.082 C193.688,40.734 195.518,39.619 197.5,38.861 C202.58,36.937 207.578,37.604 211.123,40.146" id="path138" fill="#C7A008"></path>
                    <path d="M203.556,41.122 C203.598,41.217 205.711,38.92 205.754,38.92 C203.083,39.03 201.8,40.319 201.932,40.914 C201.772,41.145 201.642,41.374 201.54,41.627 C202.11,41.343 203.164,41.125 203.556,41.122" id="path140" fill="#C7A008"></path>
                    <path d="M208.578,44.479 C208.674,44.837 208.72,45.212 208.712,45.615 C208.688,46.131 208.554,46.604 208.358,47.045 C208.764,46.862 212.001,45.857 210.765,42.295 C210.797,42.396 208.543,44.481 208.578,44.479" id="path142" fill="#C7A008"></path>
                    <path d="M201.487,55.789 C204.508,55.918 207.849,54.062 210.245,50.782 C204.097,52.043 197.634,41.805 198.282,40.803 C195.959,42.487 193.903,45.735 193.809,48.005 C193.649,52.214 197.076,55.613 201.487,55.789" id="path144" fill="#C7A008"></path>
                    <polygon id="polygon146" fill="#C7A008" points="235.178 82.464 236.619 83.428 254.207 30.643 241.044 27.601 240.879 30.693 251.497 33.049"></polygon>
                    <polygon id="polygon148" fill="#C7A008" points="214.291 21.943 214.406 24.891 228.401 27.702 233.789 53.255 235.97 51.057 230.837 25.241"></polygon>
                    <polygon id="polygon150" fill="#C7A008" points="225.061 51.062 221.208 72.854 223.427 73.573 227.252 48.916"></polygon>
                    <polygon id="polygon152" fill="#C7A008" points="43.445 80.85 36.899 57.117 34.503 58.793 40.57 81.53"></polygon>
                    <path d="M41.746,45.162 C40.236,46.764 36.889,49.877 34.982,51.105 L33.824,47.387 L31.288,39.235 L29.676,33.716 L28.103,35.735 L29.709,41.262 L32.245,49.408 L33.398,53.137 C36.009,51.455 39.807,48.298 41.746,45.162" id="path154" fill="#C7A008"></path>
                    <path d="M134.498,31.129 C132.432,30.334 129.506,30.573 127.926,32.302 C127.559,32.703 126.845,33.726 126.619,34.183 C128.148,32.967 130.871,32.704 132.656,33.348 L134.498,31.129 L134.498,31.129 Z" id="path156" fill="#7D7F68"></path>
                    <path d="M39.857,38.493 C39.625,37.273 38.43,36.304 37.844,36.035 C36.796,35.529 34.983,35.45 33.659,35.691 C33.897,36.513 34.17,37.477 34.286,37.872 C34.823,37.947 35.705,38.107 36.168,38.318 C36.749,38.598 37.765,39.258 38.001,40.486 C38.317,42.125 38.234,43.657 37.551,44.901 C39.424,43.063 40.333,41.064 39.857,38.493" id="path158" fill="#7D7F68"></path>
                </g>
                <g id="face" transform="translate(3.549000, 0.314000)">
                    <g id="p-face" transform="translate(36.000000, 39.000000)" fill="#3C5AA6">
                        <g id="g162">
                            <path d="M13.588,6.145 C12.689,1.321 6.381,-1.338 0.127,2.073 L1.739,7.594 L4.275,15.753 L5.432,19.469 C10.124,16.452 14.84,12.827 13.588,6.145 L13.588,6.145 Z M7.376,13.563 C6.693,11.334 5.195,6.521 5.195,6.521 C5.202,6.543 4.9,5.491 4.542,4.287 C5.868,4.05 7.142,4.146 8.19,4.65 C8.776,4.929 9.806,5.58 10.031,6.814 C10.549,9.588 9.614,11.568 7.376,13.563 L7.376,13.563 Z" id="path164"></path>
                        </g>
                    </g>
                    <g id="e-face" transform="translate(129.000000, 35.000000)" fill="#3567B0">
                        <g id="g168">
                            <path d="M15.223,2.491 C11.727,-0.716 6.293,-0.467 3.104,3.026 C-0.104,6.513 0.148,11.95 3.649,15.144 C3.934,15.419 4.242,15.644 4.552,15.865 L15.829,3.094 C15.63,2.886 15.43,2.679 15.223,2.491 L15.223,2.491 Z M4.575,11.474 C3.472,9.449 3.695,6.878 5.344,5.076 C6.93,3.348 9.36,2.856 11.432,3.655 L4.575,11.474 L4.575,11.474 Z" id="path170"></path>
                        </g>
                    </g>
                    <polygon id="m-highlight" fill="#1E2D5F" points="159.291 36.089 153.046 42.106 158.979 47.434"></polygon>
                    <path d="M217.199,48.981 C217.294,49.36 217.343,49.735 217.331,50.134 C217.227,52.52 214.984,54.362 212.31,54.237 C209.638,54.145 207.539,52.117 207.644,49.737 C207.734,47.506 209.722,45.74 212.177,45.627 C211.711,45.522 211.224,45.467 210.716,45.449 C206.243,45.256 202.587,48.424 202.433,52.368 C202.261,56.586 205.642,60.025 210.044,60.216 C214.523,60.395 218.177,57.216 218.355,53.018 C218.407,51.563 217.977,50.168 217.199,48.981" id="o-front" fill="#3466AF"></path>
                    <path d="M81.504,53.798 C81.504,56.194 79.325,58.114 76.656,58.114 C73.98,58.114 71.809,56.193 71.809,53.798 C71.809,51.565 73.719,49.724 76.167,49.51 C75.698,49.425 75.21,49.376 74.706,49.376 C70.234,49.376 66.706,52.693 66.706,56.643 C66.706,60.858 70.235,64.164 74.634,64.164 C79.11,64.164 82.635,60.856 82.635,56.643 C82.635,55.184 82.153,53.809 81.324,52.677 C81.436,53.018 81.504,53.396 81.504,53.798" id="o-front" fill="url(#linearGradient-8)"></path>
                    <g id="g187" transform="translate(0.000000, 0.000000)" fill="url(#linearGradient-9)">
                        <path d="M245.02,29.598 L243.034,37.783 L241.2,28.72 L216.641,23.314 L216.813,36.97 L220.514,37.8 L220.247,40.263 C220.199,40.244 220.169,40.215 220.143,40.194 C215.555,37.773 209.867,37.525 204.514,39.547 C202.718,40.234 201.051,41.137 199.539,42.235 L195.834,18.847 L179.501,18.847 L179.051,21.536 L161.86,21.536 L159.897,33.559 L158.471,31.798 C154.305,26.68 148.266,23.861 141.576,23.721 L156.172,15.876 L145.994,0.687 L127.605,21.876 L130.779,25.746 C127.904,26.921 125.392,28.541 123.311,30.498 L107.544,16.509 L102.031,27.075 L102.243,16.921 L77.592,24.796 L78.224,38.04 L82.418,36.952 L83.038,43.664 C78.246,41.512 72.486,41.565 67.144,43.822 C65.561,44.512 64.085,45.36 62.725,46.346 C63.649,42.257 63.43,38.226 61.872,34.631 C60.032,30.383 56.794,26.872 52.824,24.657 C50.041,22.803 46.724,21.648 43.253,21.255 C34.723,19.764 24.48,21.295 14.399,25.59 C10.693,27.171 7.236,28.965 4.118,30.951 L0.177,33.45 L2.557,37.469 L9.943,49.952 C9.943,49.952 12.203,53.777 12.218,53.775 L16.212,51.812 L16.769,51.556 L35.122,92.517 L36.892,96.454 L40.99,95.134 L50.92,91.953 L55.272,90.57 L54.124,86.14 L48.85,65.895 C50.367,64.772 51.783,63.581 53.09,62.334 C52.795,64.753 52.95,67.202 53.616,69.546 C54.995,74.454 58.209,78.331 62.669,80.479 C67.486,82.794 73.363,82.8 78.8,80.494 C81.527,79.337 83.952,77.649 86.007,75.64 L86.756,83.703 L104.146,81.142 L104.119,65.549 L140.456,83.508 L140.456,66.119 C141.914,65.997 143.402,65.767 144.898,65.4 C148.9,64.433 152.325,63.107 155.368,61.284 L153.842,70.623 L173.434,73.706 L174.509,66.656 L179.626,76.109 L182.754,70.082 L183.897,79.978 L206.11,83.894 L204.932,76.421 C207.973,76.765 211.178,76.357 214.274,75.189 C215.007,74.918 215.731,74.588 216.424,74.234 L215.539,82.185 L230.323,84.271 L230.433,90.334 L245.849,95.173 L265.92,34.678 L245.02,29.598 L245.02,29.598 Z M158.227,38.588 L159.246,37.505 L158.015,45.132 L154.804,42.24 L158.227,38.588 L158.227,38.588 Z M145.209,7.432 L150.591,14.743 L135.204,22.371 L134.141,20.756 L145.209,7.432 L145.209,7.432 Z M43.32,63.809 L49.459,87.364 L39.523,90.538 L19.134,45.004 C18.025,45.587 15.977,46.565 14.096,47.487 L6.713,35.015 C9.649,33.14 12.869,31.478 16.294,30.031 C25.906,25.943 35.077,24.723 42.412,26.019 C45.007,26.311 47.754,27.076 50.16,28.673 C53.461,30.532 55.986,33.178 57.442,36.548 C60.993,44.754 55.061,56.563 43.32,63.809 L43.32,63.809 Z M89.001,59.617 C88.887,63.124 87.599,66.638 85.443,69.611 C83.392,72.486 80.527,74.859 77.156,76.31 C68.536,79.962 59.916,76.31 57.613,68.126 C55.382,60.213 60.573,50.793 68.925,47.195 C74.259,44.943 79.611,45.477 83.445,48.082 C85.813,49.688 87.619,52.103 88.462,55.129 C88.568,55.45 88.638,55.787 88.709,56.117 C88.95,57.27 89.047,58.452 89.001,59.617 L89.001,59.617 Z M135.902,76.27 L99.847,58.237 L99.911,77.131 L90.584,78.403 L89.934,70.615 C92.814,65.677 93.867,59.858 92.364,54.522 C91.539,51.589 90.015,49.043 87.944,47.003 L86.606,31.124 L82.418,32.21 L82.233,28.195 L97.211,23.735 L98.129,39.183 L109.163,23.68 L119.95,33.953 L104.865,49.845 L119.037,55.451 C120.62,58.451 123.035,61 126.065,62.878 C128.994,64.686 132.35,65.755 135.9,66.106 L135.902,76.27 L135.902,76.27 L135.902,76.27 Z M117.181,50.144 L112.166,48.209 L116.841,43.665 C116.641,45.751 116.744,47.932 117.181,50.144 L117.181,50.144 Z M156.418,54.868 C152.958,57.73 149.014,59.596 143.803,60.855 C142.664,61.116 141.548,61.306 140.456,61.402 C132.185,62.215 125.246,58.417 122.613,52.257 C122.285,51.511 122.032,50.756 121.841,49.95 C120.623,44.762 121.663,40.125 124.226,36.492 C124.964,35.432 125.84,34.466 126.824,33.596 C129.238,31.442 132.32,29.876 135.824,29.034 C143.703,27.134 150.642,29.539 154.896,34.759 L139.882,50.74 C140.9,50.932 142.519,50.665 143.714,50.379 C147.29,49.507 149.291,47.609 151.054,45.541 L157.054,50.939 L158.872,52.581 C158.084,53.396 157.256,54.165 156.418,54.868 L156.418,54.868 Z M188.271,76.195 L185.005,54.56 L180.386,66.495 L173.47,51.578 L173.392,51.578 L170.659,68.853 L159.132,66.847 L160.753,57.207 C161.188,56.798 161.616,56.388 162.037,55.955 L165.773,52.108 L162.142,48.856 L166,25.899 L177.63,25.899 L180.541,41.791 L183.803,23.374 L192.122,23.374 L195.574,45.812 C191.181,50.816 189.047,57.543 190.515,63.697 C191.65,68.468 194.582,72.31 198.785,74.554 C199.208,74.767 199.646,74.978 200.098,75.16 L200.538,78.069 L188.271,76.195 L188.271,76.195 Z M216.996,69.146 C215.725,70.051 214.326,70.82 212.822,71.375 C209.853,72.506 206.9,72.741 204.269,72.218 C202.435,71.856 200.763,71.141 199.308,70.106 C196.994,68.432 195.29,65.96 194.539,62.856 C193.663,59.127 194.47,55.145 196.476,51.657 C197.476,49.952 198.759,48.35 200.277,46.969 C201.97,45.451 203.933,44.208 206.117,43.368 C211.2,41.472 216.213,42.126 219.742,44.663 C221.04,45.583 222.117,46.754 222.966,48.115 C223.61,49.19 224.11,50.375 224.413,51.669 C225.494,56.147 224.207,60.943 221.382,64.807 C220.172,66.454 218.697,67.934 216.996,69.146 L216.996,69.146 Z M242.951,89.538 L234.427,86.999 L233.684,55.573 L229.397,79.816 L220.098,78.332 L220.764,71.352 C226.836,66.221 230.055,58.127 228.291,50.792 C227.516,47.544 225.846,44.716 223.492,42.566 L224.277,34.334 L220.761,33.398 L220.996,29.003 L237.017,32.223 L242.404,57.769 L247.929,34.866 L260.117,37.559 L242.951,89.538 L242.951,89.538 Z" id="path196"></path>
                    </g>
                </g>
                <g id="tm" transform="translate(252.471599, 90.101477)" fill="#000000">
                    <polygon id="path3084" points="1.03301717 2.72887848 1.03301717 0.356426199 0.146787436 0.356426199 0.146787436 0.0389989557 2.27887377 0.0389989557 2.27887377 0.356426199 1.38898022 0.356426199 1.38898022 2.72887848"></polygon>
                    <path d="M2.63483682,2.72887848 L2.63483682,0.0389989557 L3.17060862,0.0389989557 L3.80729501,1.94356523 C3.86600998,2.12093425 3.90882964,2.25365451 3.93573519,2.34172697 C3.96626698,2.24386837 4.01399051,2.10013975 4.07885881,1.91053829 L4.72288223,0.0389989557 L5.20178035,0.0389989557 L5.20178035,2.72887848 L4.85865943,2.72887848 L4.85865943,0.477526538 L4.07701751,2.72887848 L3.75592645,2.72887848 L2.97794835,0.438994484 L2.97794835,2.72887848 L2.63483682,2.72887848 Z" id="path3086"></path>
                </g>
            </g>
        </g>
    </g>
</svg>