<?xml version="1.0" encoding="UTF-8"?>
<svg width="97px" height="93px" viewBox="0 0 97 93" version="1.1" xmlns="http://www.w3.org/2000/svg" xmlns:xlink="http://www.w3.org/1999/xlink">
    <!-- Generator: Sketch 64 (93537) - https://sketch.com -->
    <title>Background</title>
    <desc>Created with Sketch.</desc>
    <g id="Main-App" stroke="none" stroke-width="1" fill="none" fill-rule="evenodd">
        <g id="Splash" transform="translate(-139.000000, -333.000000)" fill="#000000">
            <path d="M187.680745,400.060411 C196.123519,400.060411 203.387208,395.052354 206.617929,387.867396 L235.249537,387.867348 C231.3104,409.555116 212.334099,426 189.50651,426 L185.49349,426 C162.671648,426 143.69031,409.559008 139.750487,387.867711 L168.743562,387.867396 C171.974283,395.052354 179.237972,400.060411 187.680745,400.060411 Z M187.740994,365.155527 C195.7601,365.155527 202.26087,371.604526 202.26087,379.559769 C202.26087,387.515012 195.7601,393.96401 187.740994,393.96401 C179.721888,393.96401 173.221118,387.515012 173.221118,379.559769 C173.221118,371.604526 179.721888,365.155527 187.740994,365.155527 Z M189.50651,333 C212.745475,333 232.002265,350.04748 235.450399,372.326862 L207.110157,372.32736 C204.176145,364.50891 196.584059,358.939589 187.680745,358.939589 C178.777432,358.939589 171.185346,364.50891 168.251334,372.32736 L139.549586,372.327179 C142.997123,350.051595 162.248618,333 185.49349,333 L189.50651,333 Z" id="Background"></path>
        </g>
    </g>
</svg>